<?xml version="1.0" encoding="utf-8"?>
<!-- Generator: Adobe Illustrator 24.0.2, SVG Export Plug-In . SVG Version: 6.00 Build 0)  -->
<svg version="1.1" id="Layer_1" xmlns="http://www.w3.org/2000/svg" xmlns:xlink="http://www.w3.org/1999/xlink" x="0px" y="0px"
	 viewBox="0 0 100 50" style="enable-background:new 0 0 100 50;" xml:space="preserve">
<style type="text/css">
	.st0{fill:#D69592;}
	.st1{fill:#F4D2CD;}
	.st2{fill:#EF7D53;}
	.st3{fill:#BC5E5E;}
	.st4{fill:#3B2A2A;}
	.st5{fill:#969696;}
	.st6{fill:#FFFFFF;}
</style>
<g>
	<path class="st4" d="M10.98,23.66v1.39c0,7.32,2.74,11.67,6.66,13.98l-2.34,2.96c-2.38-1.46-5.38-5.01-6.29-8.12
		c-0.77,3.29-3.66,7.06-6.51,8.85L0,39.9c4.32-2.93,6.99-7.35,6.99-14.75v-1.5H1.06v-3.33h15.55v3.33H10.98z"/>
	<polygon class="st4" points="19.28,48.5 19.28,31.45 14.49,31.45 14.49,28.08 19.28,28.08 19.28,17.66 23.09,17.66 23.09,48.5 	"/>
	<rect x="26.01" y="17.07" class="st4" width="3.88" height="32.89"/>
	<path class="st4" d="M53.26,40.01c-4.54,1.13-11.67,1.57-18.81,1.57V20.33h4.02v17.78c4.72,0,10.32-0.44,14.38-1.35L53.26,40.01z"
		/>
	<polygon class="st4" points="59.78,34 59.78,49.96 55.71,49.96 55.71,17.07 59.78,17.07 59.78,30.56 65.04,30.56 65.04,34 	"/>
	<path class="st4" d="M86.06,43.19c-3.4-1.39-6.99-4.98-8.16-8.2c-1.02,3.29-4.35,7.03-8.2,8.89l-2.34-3.04
		c5.09-2.49,8.27-6.84,8.34-12.84h-7.03v-3.29h18.37v3.29h-7.1c0.07,5.96,3.37,10.03,8.27,12.15L86.06,43.19z"/>
	<polygon class="st4" points="72.49,21.23 72.94,17.07 83.09,20.23 82.64,22.61 	"/>
	<polygon class="st4" points="94.69,34.01 94.69,50 90.63,50 90.63,17.07 94.69,17.07 94.69,30.64 100,30.64 100,34.01 	"/>
</g>
<g>
	<path class="st4" d="M4.06,3.54v1.2h3.59v0.43H0V4.74h3.59v-1.2H1.13V0.22h0.49v1.17h4.42V0.23h0.49v3.31H4.06z M1.61,5.94v1.93
		h5.01V8.3H1.14V5.94H1.61z M6.04,1.83H1.61V3.1h4.42V1.83z"/>
	<path class="st4" d="M19.56,5.66c-1.18,0.21-2.2,0.28-3.91,0.26V3.05h2.66V1.22h-2.67V0.78h3.16v2.71h-2.66v1.98
		c0.74,0.02,2.28-0.01,3.35-0.23L19.56,5.66z M22.03,8.14V3.59h-1.39v4.2h-0.48V0.18h0.48v2.97h1.39V0h0.49v8.14H22.03z"/>
	<path class="st4" d="M36.14,5.95c-0.78,0.1-1.96,0.18-2.98,0.26c-0.97,0.04-1.87,0.07-2.58,0.07l-0.07-0.47
		c0.6,0.01,1.63-0.01,2.61-0.07c1.13-0.05,2.3-0.14,2.99-0.23L36.14,5.95z M33.14,0.5c1.22,0,2.18,0.8,2.18,1.95
		c0,1.15-0.96,1.98-2.18,1.98c-1.21,0-2.18-0.83-2.18-1.97C30.96,1.3,31.93,0.5,33.14,0.5z M33.14,3.98c0.98,0,1.69-0.61,1.69-1.5
		c0-0.9-0.71-1.51-1.69-1.51c-0.94,0-1.69,0.59-1.69,1.5S32.19,3.98,33.14,3.98z M36.85,0h0.49v8.14h-0.49V0z"/>
	<path class="st4" d="M50.03,5.42c-1.15,0.25-3.09,0.38-4.71,0.38V0.77h0.48v4.57c1.11,0,3.06-0.07,4.16-0.39L50.03,5.42z
		 M51.36,3.58v4.56h-0.48V0h0.48v3.15h1.5v0.43H51.36z"/>
	<path class="st4" d="M60.85,4.51V4.08h7.65v0.43H60.85z M61.95,8.45V6.57h4.94V5.71h-4.95V5.27h5.43v1.73h-4.94v1h5.25v0.44H61.95z
		 M61.98,3.28V1.5h4.9V0.66h-4.92V0.22h5.39v1.72h-4.9v0.9h5.04v0.44H61.98z"/>
	<path class="st4" d="M81.07,4.74c-0.9-0.27-1.77-0.95-2.14-1.72c-0.3,0.77-1.14,1.51-2.18,1.91l-0.26-0.4
		c1.09-0.33,2.2-1.31,2.2-2.41V2h-1.98V1.56h4.4V2h-1.94v0.11c0,1.08,1.11,1.98,2.15,2.23L81.07,4.74z M80.82,5.91
		c0.1,1.01,1.27,1.94,2.78,2.18l-0.26,0.4c-1.28-0.22-2.5-1.08-2.8-1.91c-0.28,0.83-1.43,1.67-2.81,1.92l-0.27-0.39
		c1.6-0.27,2.69-1.18,2.81-2.21h-2.38V5.48h5.22v0.43H80.82z M77.75,0.64V0.2h2.34v0.44H77.75z M83.04,2.72v2.13h-0.49V0.01h0.49
		v2.27h1.39v0.44H83.04z"/>
	<path class="st4" d="M97.17,5.6c-1.35,0.22-2.98,0.35-4.74,0.29V0.77h3.86v0.44H92.9v4.22c1.17,0.06,3.2-0.08,4.2-0.28L97.17,5.6z
		 M98.5,3.61v4.53h-0.48V0h0.48v3.17h1.5v0.43H98.5z"/>
</g>
</svg>
